<svg id="Template-2" data-name="Template" xmlns="http://www.w3.org/2000/svg" viewBox="0 0 108.64 19.99"><defs><style>.cls-1{fill:#231f20;}.cls-2{fill:#e43d96;}</style></defs><title>Logo</title><path class="cls-1" d="M28.53,15.64A0.68,0.68,0,0,0,28,15.36a2.53,2.53,0,0,1-.42,0,4.11,4.11,0,0,1-.44,0c0-.33,0-0.61,0-0.91s0-.54,0-0.79c0-1,.12-2,0.16-3s0-1.66.09-2.48c0-1.64.07-3.25,0.16-4.89a7.89,7.89,0,0,1,.23-1.66A8.28,8.28,0,0,0,28,.54a0.3,0.3,0,0,0-.21-0.4A1.54,1.54,0,0,0,27,0a3.5,3.5,0,0,1-.26.3C26,1,25.37,1.59,24.67,2.2c-0.49.47-.91,1-1.38,1.52-0.07.09-.12,0.19-0.19,0.28s0,0.07,0,.09a0.16,0.16,0,0,0,.09.16,0.92,0.92,0,0,0,.56-0.14c0.33-.28.65-0.56,1-0.87s0.75-.77,1.12-1.15A0.18,0.18,0,0,1,26,2a1.49,1.49,0,0,0,0,.16c-0.14.49-.28,1-0.42,1.5A25.07,25.07,0,0,0,24.88,7q-0.09.67-.16,1.34l0,0.2q0,0.38-.07.77,0,0.22,0,.43c-0.06.83-.1,1.66-0.16,2.48,0,0.42,0,.84,0,1.29a8.26,8.26,0,0,0,0,1.08l0.07,0.91a1.13,1.13,0,0,1,0,.28,2.66,2.66,0,0,1-.58.14l-0.61.07a0.19,0.19,0,0,0-.19.28,0.63,0.63,0,0,0,.61.44,11.39,11.39,0,0,0,1.54.09,8.53,8.53,0,0,0,1.54-.07l0.89-.14a2,2,0,0,0,.72-0.3A0.36,0.36,0,0,0,28.53,15.64Zm-0.72.07a0.09,0.09,0,0,1,0,0s0,0,0-.07l0.07,0A0,0,0,0,1,27.81,15.71Z"/><path class="cls-2" d="M108.63,12.16c0-.06,0-0.12,0-0.17s0-.12,0-0.17,0-.19-0.07-0.28l0-.15-0.06-.16c0-.11-0.09-0.21-0.14-0.32a3,3,0,0,0-.36-0.56l-0.1-.12-0.11-.11a2.14,2.14,0,0,0-.24-0.2l-0.06,0-0.06,0-0.13-.08L107,9.62a1.92,1.92,0,0,0-.95-0.1l-0.29,0-0.26.06-0.12,0h-0.1L105,9.77l-0.12,0a4.6,4.6,0,0,0-1,.49,1.36,1.36,0,0,0-.19-0.39,1.06,1.06,0,0,0-.44-0.36,0.79,0.79,0,0,0-.57,0,0.29,0.29,0,0,0-.07-0.23,0.83,0.83,0,0,0-.24-0.2A0.46,0.46,0,0,0,102,9l-0.37.11-0.26.07-0.15,0-0.1,0-0.1,0a2.25,2.25,0,0,0-.77.27,1.73,1.73,0,0,0-.59.6l-0.11.2,0,0.1,0,0.05,0,0-0.13.29a4.38,4.38,0,0,0-.24,1.1,3.56,3.56,0,0,0,0,.37v0.29c0,0.09,0,.17,0,0.25s0,0.14,0,.2,0,0.13,0,.19l0-.22,0.17,0.36c0.06,0.11.11,0.22,0.16,0.33a0.49,0.49,0,0,0,.11-0.17V13.6a1.3,1.3,0,0,1,.26.41c-0.07,0-.06.08-0.05,0.16l0,0a3,3,0,0,0,.12.45c0.05,0.15.11,0.29,0.14,0.42a0.11,0.11,0,0,1,0,.09l0.06,0.11,0.06,0.11c-0.09,0,0,.22-0.09.13,0.15,0.15.17,0.35,0.33,0.48a6.09,6.09,0,0,0,1.05,1.7l0,0a2.55,2.55,0,0,0,.28.23,0.86,0.86,0,0,1,.13.13,0.6,0.6,0,0,1,.1.17c0.1,0.05.2,0.13,0.3,0.19a0.44,0.44,0,0,0,.3.07,3,3,0,0,0,.44.33c0-.1.21,0.1,0.2,0a2.28,2.28,0,0,0-.07-0.28l0,0c-0.22-.52-0.45-1-0.68-1.52a5.14,5.14,0,0,1-.54-1c-0.19-.37-0.41-0.76-0.59-1.08a0.28,0.28,0,0,1,0-.24,3.68,3.68,0,0,1-.18-0.51c-0.06-.18-0.1-0.37-0.17-0.55a0.09,0.09,0,0,1,0,0c-0.06-.19,0-0.35,0-0.54a0.06,0.06,0,0,1,0,0,0.22,0.22,0,0,0,0-.19l-0.06-.18-0.07-.2-0.07-.21,0-.08,0-.07a0.29,0.29,0,0,1,0-.18V11.78a1.72,1.72,0,0,1,.23-0.52l0.14-.23,0-.05v0h0l0,0a0.75,0.75,0,0,1-.1-0.16c0.05,0,0-.06,0-0.08a0.31,0.31,0,0,0,.16.07,0.09,0.09,0,0,0-.05-0.08,0.26,0.26,0,0,1,.18-0.06h0l0.08,0s0.08,0,.11.07a0.35,0.35,0,0,1,.24.06s0.1,0,.17,0a0.3,0.3,0,0,1,.15,0h0a0.16,0.16,0,0,1,.09.12,0.23,0.23,0,0,0,0,.12,2.62,2.62,0,0,1,.24.31,1.67,1.67,0,0,1,.21.5,0.45,0.45,0,0,1,.06-0.11,1,1,0,0,1,0,.13l-0.1.23,0.11-.06V12l0,0a0.52,0.52,0,0,0-.11.21,0.53,0.53,0,0,0-.06.23,0.11,0.11,0,0,0,.07.1l0.07,0a0.12,0.12,0,0,0,0,.12,0,0,0,0,1,0,0c-0.08,0,0,.08-0.06.08h0a0.06,0.06,0,0,1,0,0L102.71,13l0.15,0.15h0a0,0,0,0,0,.08,0v0h0v0a0.09,0.09,0,0,1-.08,0,0.07,0.07,0,0,1,0,.09c0.05-.07.13-0.17,0.21-0.26a0.3,0.3,0,0,1,0,.14,1,1,0,0,0-.15.2s0.09,0,.05.06,0,0-.05.06a0.1,0.1,0,0,1,0-.1c-0.07,0-.06.07-0.08,0.09a0.41,0.41,0,0,1,0,.11s-0.05,0-.06,0h0l0,0s0,0,0,0h0l0,0,0,0-0.2.1h0l0.21-.09h0L102.7,14l0.1,0,0.12,0h0l-0.1.05a1.07,1.07,0,0,0,.3,0h0l0,0c0.1,0.05.21,0.11,0.24,0s-0.09,0-.08-0.12a0.16,0.16,0,0,0,.12-0.07h0l0.16-.08a1.09,1.09,0,0,0,.28-0.2l0.26-.29,0.1-.1,0.09-.09a3.71,3.71,0,0,1,.41-0.33,4.44,4.44,0,0,1,.95-0.49c0-.05-0.07-0.09,0-0.13a0.28,0.28,0,0,1,.13,0H106s0,0.06,0,0V12a0.16,0.16,0,0,1,0,.12h0a0.08,0.08,0,0,1,.08,0l0.07,0h0V12.2a0.11,0.11,0,0,1,0,.08h0.08a0.07,0.07,0,0,1,0,0v0.11a1.73,1.73,0,0,1,0,.17l-0.09.35-0.12.36c0,0.06,0,.12-0.07.18l-0.07.18a10.62,10.62,0,0,1-.78,1.51,3.86,3.86,0,0,1-.37.68l-0.19.21-0.23.21-0.23.2-0.22.18a0.52,0.52,0,0,1,0,.53c-0.07.21-.13,0.42,0,0.48a1.14,1.14,0,0,0-.45.46,0.72,0.72,0,0,1,.07.45,1.42,1.42,0,0,1-.36.68c-0.19.19-.59,0.33-0.63,0.43s0.39,0,.31.11A14.52,14.52,0,0,0,104,19c0.38-.31.76-0.62,1.11-1s0.71-.69,1-1.06,0.67-.76,1-1.18c0-.06.09-0.15,0.16-0.27l0.26-.43,0.33-.58c0.11-.22.24-0.45,0.34-0.71l0.08-.19,0-.1,0-.1,0.08-.21a3.17,3.17,0,0,0,.11-0.32c0-.06,0-0.11,0-0.17s0-.12,0-0.17,0-.12,0-0.18S108.64,12.22,108.63,12.16Zm-5-1.92,0,0,0,0a1.73,1.73,0,0,1,.15.24l0,0a0.1,0.1,0,0,0-.11,0C103.52,10.29,103.56,10.26,103.62,10.23Zm-0.8,3.56a0.1,0.1,0,0,1,.07,0h0a0.09,0.09,0,0,1,0,0h0a0.08,0.08,0,0,0,0,.08h0Zm0.06,0.07h0l0,0h0l0,0h0Zm0.06,0.07h0Z"/><path class="cls-2" d="M102.72,13.7l0,0S102.71,13.69,102.72,13.7Z"/><path class="cls-2" d="M102.75,13.72l0,0h0Z"/><path class="cls-2" d="M102.92,13.76h0Z"/><path class="cls-1" d="M20.86,8.86A1.88,1.88,0,0,0,20.53,8a10.15,10.15,0,0,0-.86-1A2.89,2.89,0,0,0,19,6.51l-0.57-.29-0.21-.13a7.08,7.08,0,0,1,.63-1.34A2.81,2.81,0,0,0,19.23,4a1.68,1.68,0,0,0,.06-0.55,3.2,3.2,0,0,0-.46-1.36,3.58,3.58,0,0,0-.23-0.29,1,1,0,0,0-.76-0.61,2.07,2.07,0,0,0-.34-0.1,1.07,1.07,0,0,0-.27,0,2.46,2.46,0,0,0-1.39.27A5.38,5.38,0,0,0,14.31,2.5a6.92,6.92,0,0,0-1,1.34,2,2,0,0,0-.15.19c0-.1-0.06-0.15-0.08-0.21a2.41,2.41,0,0,0,0-.4,3,3,0,0,0-.57-1.78,1.25,1.25,0,0,0-1.22-.52,0.23,0.23,0,0,0-.27.23,5.52,5.52,0,0,0-.13.82c-0.06.59-.13,1.18-0.17,1.76s0,1.09,0,1.64c0,1.07-.06,2.16,0,3.23,0,0.86.08,1.72,0.1,2.58,0,0.14,0,.29,0,0.43l-0.21.44C10,13.35,9.43,14.44,8.87,15.54l-0.15.22c0-.07-0.09-0.09-0.11-0.13-0.07-.2-0.15-0.41-0.22-0.61A10.35,10.35,0,0,1,8,13.61a8.66,8.66,0,0,0-.33-1.24c0-.13-0.11-0.28-0.15-0.41s-0.07-.48-0.11-0.72a9.34,9.34,0,0,0-.33-1.34C7,9.6,6.85,9.28,6.74,9a1.59,1.59,0,0,0-.48-0.65C6,8.11,5.81,7.91,5.57,7.7a0.54,0.54,0,0,1,.17-0.33c0.33-.46.67-0.89,1-1.37s0.65-.87,1-1.32a1,1,0,0,0,0-1.08,1,1,0,0,0-.63-0.43,0.46,0.46,0,0,0-.41,0,0.23,0.23,0,0,1-.17,0,0.33,0.33,0,0,0-.26.15,1.19,1.19,0,0,0-.15.2C5.72,4.14,5.35,4.79,5,5.4S4.12,6.83,3.64,7.5a1.9,1.9,0,0,0-.17.22,0.52,0.52,0,0,1-.09-0.43,10.31,10.31,0,0,0-.3-2.82A2.78,2.78,0,0,0,2.6,3.34l-0.22-.2A1.8,1.8,0,0,0,1,2.52,0.45,0.45,0,0,0,.43,3c0,0.24,0,.91,0,1.15C0.39,4.9.3,5.66,0.26,6.44c-0.07,1-.11,2-0.17,3.06S0,11.47,0,12.44q0,1.11.07,2.21c0,0.61.09,1.19,0.13,1.8l0.13,0.87a0.8,0.8,0,0,0,.09.33,0.75,0.75,0,0,1,.13.52,3.62,3.62,0,0,0,.2,1.19,1.22,1.22,0,0,0,.46.63l0.13-.07a0.7,0.7,0,0,0,.5-0.28,0.1,0.1,0,0,1,.09,0,2.66,2.66,0,0,1,.54-0.11,1.22,1.22,0,0,0,.69-0.33A0.32,0.32,0,0,0,3.23,19a4,4,0,0,0,0-.5,3.07,3.07,0,0,1,0-.89,1,1,0,0,0,.07-0.37,9.17,9.17,0,0,0-.11-1.08,6.79,6.79,0,0,1-.09-1c0-.67,0-1.34,0-2a17,17,0,0,1,.13-2.34,1.14,1.14,0,0,1,.3-0.63,3.88,3.88,0,0,0,.43-0.61,2.92,2.92,0,0,0,.24-0.3,0.45,0.45,0,0,0,.13-0.09c0,0.17.07,0.3,0.09,0.41a19,19,0,0,0,.3,1.89c0.07,0.28.11,0.56,0.15,0.85s0.15,0.65.22,1a11.33,11.33,0,0,0,.63,1.89,6.78,6.78,0,0,0,.76,1.54,9,9,0,0,0,.59.69,1,1,0,0,0,.93.37H8a1.44,1.44,0,0,0,1.15-.52,0.93,0.93,0,0,1,.22-0.2,1.06,1.06,0,0,0,.24-0.3,5.07,5.07,0,0,0,.41-1.08A6.51,6.51,0,0,1,10.3,15c0.13-.35.3-0.67,0.41-1,0.06-.18.13-0.37,0.2-0.55l0,0.36a21.75,21.75,0,0,1,.25,2.35c0,0.23.08,0.29,0.31,0.34a1.76,1.76,0,0,1,.8.25,0.54,0.54,0,0,0,.38.5,2.83,2.83,0,0,0,.55.31,1.26,1.26,0,0,0,1,.21,0.79,0.79,0,0,1,.21,0,4.94,4.94,0,0,0,.55,0,4.34,4.34,0,0,0,1.6-.61l0.52-.38a2.28,2.28,0,0,0,.55-0.44,1.35,1.35,0,0,1,.27-0.21,2.19,2.19,0,0,0,.5-0.48c0.15-.17.31-0.34,0.46-0.52l0.44-.59c0.15-.17.27-0.36,0.42-0.52a2.82,2.82,0,0,0,.38-0.59L20.4,13a3.42,3.42,0,0,0,.42-1c0.06-.31.13-0.65,0.17-1v0l0-1.48A3,3,0,0,1,20.86,8.86Zm-7.22-2a7.93,7.93,0,0,1,.63-1.66,9,9,0,0,1,1.11-1.83A4.49,4.49,0,0,1,17.06,2a0.56,0.56,0,0,1,.46,0,0.76,0.76,0,0,1,.13.52,6.34,6.34,0,0,1-.23,1.26,9.15,9.15,0,0,1-.84,2,0.54,0.54,0,0,1-.42.31,4.74,4.74,0,0,0-2.29.9l-0.19.13a0.09,0.09,0,0,0-.06,0A0.79,0.79,0,0,1,13.64,6.83Zm0,1.64a4.42,4.42,0,0,1,1-.82c0.17-.08.31-0.19,0.48-0.27a0.19,0.19,0,0,1,.19,0c-0.06.08-.1,0.17-0.15,0.23-0.55.5-1.07,1-1.62,1.53l-0.15.08A0.63,0.63,0,0,1,13.68,8.46Zm4.18,4.28c-0.19.38-.36,0.73-0.55,1.09a4,4,0,0,1-.65.9l-0.4.44c-0.44.59-1.51,1.45-2.29,1.24-0.15,0-.21-0.15-0.1-0.27a3.79,3.79,0,0,1,.57-0.82,10,10,0,0,1,1.15-1.15c0.4-.38.84-0.69,1.26-1s0.57-.4.86-0.59A1.78,1.78,0,0,1,18,12.43,1.87,1.87,0,0,1,17.86,12.74Zm0.94-3.69a6.68,6.68,0,0,1-.23,1.72c-0.46.25-.9,0.52-1.36,0.76a10.26,10.26,0,0,0-1.26.86c-0.4.31-.8,0.65-1.22,1s-0.73.67-1.09,1a0.26,0.26,0,0,1-.1-0.23V10.37l0.21-.15,0.76-.55c0.57-.44,1.18-0.86,1.74-1.3a8.49,8.49,0,0,0,1.24-1.22l0.17-.23a1.24,1.24,0,0,1,1,.92A3.4,3.4,0,0,1,18.81,9.05Z"/><path class="cls-1" d="M60.92,7.69c-0.25.36-.5,0.73-0.76,1.11-0.61.92-1.15,1.89-1.68,2.88-0.36.69-.71,1.36-1.07,2-0.13.23-.27,0.46-0.42,0.71a0.14,0.14,0,0,1-.17.08,1.17,1.17,0,0,1-.1-0.17,6.3,6.3,0,0,1-.23-0.67A15.85,15.85,0,0,1,56,11.26a20.52,20.52,0,0,1-.21-2.77c0-.92,0-1.83,0-2.75,0-.06,0-0.13,0-0.19l0.1,0c0.5,0.08,1,.17,1.51.27a1.93,1.93,0,0,0,1.09-.15,0.39,0.39,0,0,0,.23-0.59,1,1,0,0,0-.63-0.55,10.64,10.64,0,0,0-2.12-.61l-0.23-.08c0-.4-0.08-0.78-0.1-1.15A4,4,0,0,0,55,.57,0.75,0.75,0,0,0,54.71.34,5.69,5.69,0,0,0,54.08.07a0.94,0.94,0,0,0-.59,0l-0.06.19L53.3,1c-0.06.5-.15,1.53-0.19,2a0.47,0.47,0,0,1-.13.36l-0.1,0a12.12,12.12,0,0,1-1.22-.17,0.58,0.58,0,0,0-.19,0,1.36,1.36,0,0,0-.48.19c-0.19.13-.21,0.27,0,0.4a4,4,0,0,0,1,.55c0.31,0.08.63,0.19,0.94,0.29,0,0.44,0,.82,0,1.22s0,0.68,0,1L52.82,7a6.77,6.77,0,0,1-1.49.67,2.07,2.07,0,0,1-.36,0,3.19,3.19,0,0,1-.13-0.42,4.19,4.19,0,0,0-.23-0.88c-0.08-.25-0.15-0.5-0.21-0.76a0.35,0.35,0,0,0-.06-0.13,2.28,2.28,0,0,0-1.15-1,9.86,9.86,0,0,0-1.36-.29,0.2,0.2,0,0,0-.19.08,0.75,0.75,0,0,0-.15.21,2.4,2.4,0,0,0-.29.9,0.69,0.69,0,0,1-.06.13A2.66,2.66,0,0,0,45.81,5a0.38,0.38,0,0,0-.5.31,7.57,7.57,0,0,0-.34.88,12.64,12.64,0,0,0-.4,2,0.27,0.27,0,0,1,0,.13,3.73,3.73,0,0,0-.13,1.07,5.32,5.32,0,0,0,0,.79v0c-0.44.78-.86,1.55-1.3,2.31s-0.92,1.6-1.41,2.39a2.57,2.57,0,0,1-.25.4,0.91,0.91,0,0,1-.15.13,3,3,0,0,1-.17-0.94,5.17,5.17,0,0,0,0-.55c0-.57-0.06-1.13-0.06-1.7a16.83,16.83,0,0,1,0-2.06c0-.42,0-0.86.08-1.3,0-.27.06-0.55,0.1-0.84a0.3,0.3,0,0,1,.19-0.25,0.3,0.3,0,0,0,.13,0l0.13-.36A2,2,0,0,0,42.41,7a0.19,0.19,0,0,0,0-.1s0-.1,0-0.15a0.22,0.22,0,0,0,0-.23,0.75,0.75,0,0,0-.23-0.08l-0.4,0-0.23-.06a4.8,4.8,0,0,0,0-.52,9.89,9.89,0,0,0,.06-1.11c0-.23,0-0.46,0-0.71A3.47,3.47,0,0,0,41,2.23,0.66,0.66,0,0,0,40.82,2a2.8,2.8,0,0,0-.69-0.5,0.16,0.16,0,0,0-.1,0l-0.23.13c0,0.19-.06.36-0.1,0.52-0.13.46-.27,0.9-0.36,1.36-0.19.84-.34,1.7-0.5,2.56,0,0.1-.06.21-0.08,0.31l-0.88.1-1.91.27c-0.38,0-.76.06-1.11,0.08a0.46,0.46,0,0,1-.42-0.1V6.53a8.79,8.79,0,0,1,.25-1.66A0.79,0.79,0,0,1,35,4.35,10.17,10.17,0,0,0,36.35,3c0.23-.23.42-0.46,0.63-0.71a1.45,1.45,0,0,0,.31-0.59,0.46,0.46,0,0,0-.46-0.59c-0.13,0-.27,0-0.4,0a1.72,1.72,0,0,0-1,.21,5.28,5.28,0,0,0-2.23,2,10.22,10.22,0,0,0-.92,1.93,12.16,12.16,0,0,0-.61,2.43,21.52,21.52,0,0,0-.23,2.85A31.12,31.12,0,0,0,31.65,14c0,0.38.06,0.76,0.1,1.13S31.9,16,32,16.5a1.21,1.21,0,0,0,.61.9,0.55,0.55,0,0,0,.52.1,4.19,4.19,0,0,1,.55-0.1A1,1,0,0,1,34,17.32l0.29-.08A0.7,0.7,0,0,0,34.77,17a0.12,0.12,0,0,0,0-.1,4.53,4.53,0,0,0,0-.92,1.42,1.42,0,0,1,0-.29c0-.38,0-0.78-0.08-1.15-0.13-.76-0.15-1.53-0.21-2.29,0-.5-0.06-1-0.08-1.49s-0.06-1.07-.08-1.6a1,1,0,0,1,0-.25,0.18,0.18,0,0,1,.15-0.19,0.58,0.58,0,0,1,.19,0L35,8.71a7.78,7.78,0,0,0,2.6-.23,1.23,1.23,0,0,1,.78,0,0.41,0.41,0,0,1,0,.15c-0.13.9-.13,1.81-0.17,2.71a3.37,3.37,0,0,0,0,.65c0,0.5.08,1,.13,1.55a8.77,8.77,0,0,0,.46,2.2,5,5,0,0,0,.48.94,0.9,0.9,0,0,0,.57.4,2.5,2.5,0,0,0,.88,0,2.92,2.92,0,0,0,1.91-1.74c0.17-.36.34-0.69,0.48-1.07s0.4-.82.59-1.22a2.5,2.5,0,0,0,.34-0.82L44.18,12l0.46-.92c0,0.17.09,0.35,0.14,0.52,0.13,0.44.27,0.88,0.42,1.32a5.44,5.44,0,0,0,.36.8,4.05,4.05,0,0,0,1.72,1.53,2.23,2.23,0,0,0,.63.21,3,3,0,0,0,2-.57,1.72,1.72,0,0,0,.65-0.69,4.56,4.56,0,0,0,.25-0.76c0.15-.67.31-1.32,0.48-2a0.67,0.67,0,0,1-.1-0.4c0-.27,0-0.55,0-0.82L51.06,8.69a0.58,0.58,0,0,1,0-.19,0.49,0.49,0,0,1,.17,0,2.81,2.81,0,0,0,1.07-.36,3.43,3.43,0,0,1,.4-0.19L53,7.78c0,0.57.06,1.14,0.12,1.71s0.1,1.13.17,1.68a12.94,12.94,0,0,0,.25,1.53c0.15,0.67.38,1.34,0.57,2a3.31,3.31,0,0,0,.84,1.36,1.1,1.1,0,0,0,1,.38h0.19a1.11,1.11,0,0,0,.67-0.17,2.51,2.51,0,0,1,.34-0.17,1.38,1.38,0,0,0,.69-0.55,4.48,4.48,0,0,0,.67-1.34,5.46,5.46,0,0,1,.34-0.71c0.17-.36.4-0.71,0.57-1.09s0.46-1,.71-1.53,0.48-.92.69-1.41a5.27,5.27,0,0,1,.55-0.94,1.13,1.13,0,0,0,.27-0.69A1,1,0,0,0,60.92,7.69ZM35.78,2.46A3.57,3.57,0,0,0,36,2.16a3.27,3.27,0,0,1,.59-0.48,0.48,0.48,0,0,1,.19.06,0.58,0.58,0,0,1-.17.38c-0.15.17-.31,0.36-0.48,0.52s-0.5.46-.78,0.67a0.36,0.36,0,0,1-.15.08A4.54,4.54,0,0,1,35.78,2.46Zm12.48,3a1.38,1.38,0,0,1,.57.46,1.78,1.78,0,0,1,.46,1.13,2.18,2.18,0,0,1-.92-0.92A0.93,0.93,0,0,1,48.27,5.5Zm1.39,5.23c0,0.29-.06.59-0.1,0.86a5,5,0,0,1-.38,1.53,1.86,1.86,0,0,1-.29.52c-0.13.17-.25,0.17-0.38,0a2.47,2.47,0,0,1-.23-0.4c-0.21-.42-0.4-0.86-0.61-1.28a5.52,5.52,0,0,1-.5-2.16c0-.69,0-1.36,0-2,0-.36.06-0.71,0.1-1.07a0.78,0.78,0,0,1,0-.19,0.8,0.8,0,0,1,.13.1l0.19,0.29a2.15,2.15,0,0,0,.57.59,6.41,6.41,0,0,0,1.28.71,0.65,0.65,0,0,1,0,.17c0.06,0.59.1,1.18,0.13,1.74A3.16,3.16,0,0,1,49.65,10.73Z"/><path class="cls-1" d="M101.7,6.22c0-.17-0.27-0.15-0.44-0.1a30.23,30.23,0,0,0-3,1.22c-0.9.38-1.74,0.88-2.6,1.34l-0.17.06-0.08-.08a6.28,6.28,0,0,1-.78-1.22,3.17,3.17,0,0,1-.23-2.1L94.5,5a0.84,0.84,0,0,1,.17-0.48,0.87,0.87,0,0,1,.76,0,0.34,0.34,0,0,1,.25.25A0.52,0.52,0,0,0,96.1,5a0.23,0.23,0,0,0,.29-0.21,0.55,0.55,0,0,0-.17-0.52C96.1,4.18,96,4.08,95.87,4a3.5,3.5,0,0,0-.94-0.42,1.46,1.46,0,0,1-.27-0.1,0.53,0.53,0,0,0-.4-0.06,2.52,2.52,0,0,1-.8,0,0.91,0.91,0,0,0-.61.23,2.24,2.24,0,0,0-.29.34A2.86,2.86,0,0,0,92,5.3a4.38,4.38,0,0,0,0,1.39,2.48,2.48,0,0,0,.17.65A8.29,8.29,0,0,0,93,9l0.22,0.32c-0.34,0-.69,0-1,0.08-0.69.13-1.45,0.13-2.16,0.19a1.52,1.52,0,0,1-.5-0.71C89.39,8.58,89.18,8.3,89,8a14.47,14.47,0,0,0-2.29-2.25,3,3,0,0,1-.61-0.65c-0.17-.25-0.34-0.5-0.48-0.78a1.78,1.78,0,0,1-.19-0.8,0.93,0.93,0,0,1,.59-1,4.72,4.72,0,0,1,1.76-.42,2.71,2.71,0,0,1,.82.17,0.44,0.44,0,0,1,.13.08A1,1,0,0,1,89,3.56c-0.1.21-.19,0.44-0.29,0.67a0.26,0.26,0,0,0,.06.29,0.25,0.25,0,0,0,.27.06,0.87,0.87,0,0,0,.52-0.42,2,2,0,0,0,.15-1.43,2,2,0,0,0-.13-0.31A1.32,1.32,0,0,0,89,1.71a3.19,3.19,0,0,0-1.76-.31,7.84,7.84,0,0,0-1.39.34,4,4,0,0,0-1.28.67,1.73,1.73,0,0,0-.55.84c-0.06.19-.1,0.38-0.17,0.57a1.94,1.94,0,0,0-.08.61A6.09,6.09,0,0,0,84,5.66a5.25,5.25,0,0,0,1.49,2.6,6.75,6.75,0,0,1,.65.68c-0.38.48-.73,1-1.07,1.51-0.52.78-1.09,1.53-1.68,2.26l0,0a4.78,4.78,0,0,0-.56.67c-0.45.51-.91,1-1.39,1.47a2.44,2.44,0,0,1-.71.5,1.15,1.15,0,0,1-.38.13A0.29,0.29,0,0,1,80,15.41a1.75,1.75,0,0,1-.25-0.48,8.83,8.83,0,0,1-.4-2.1,12.14,12.14,0,0,1,.1-1.74,0.22,0.22,0,0,1,.15-0.19,0.31,0.31,0,0,1,.15-0.06,7.38,7.38,0,0,0,2-1.49,3.73,3.73,0,0,0,1-2,0.88,0.88,0,0,0-.34-0.86c-0.15-.1-0.34-0.19-0.5-0.29a0.83,0.83,0,0,0-.55-0.1c-0.25,0-.48.13-0.73,0.17a1.87,1.87,0,0,0-.8.38,2.24,2.24,0,0,0-.23.19,2.74,2.74,0,0,0-.44.42,6.75,6.75,0,0,0-.94,1.34,4.72,4.72,0,0,0-.59,1.6,6,6,0,0,1-.13.65,7.33,7.33,0,0,0-.15.9q-0.06.8-.06,1.59l-0.15.47-0.57,1.64a1.1,1.1,0,0,1-.23.4,2.17,2.17,0,0,1-.5-0.76c-0.17-.44-0.31-0.9-0.44-1.34a16.58,16.58,0,0,1-.44-2.08,10.09,10.09,0,0,1-.19-1.78c0-.42,0-0.84,0-1.26,0-.67-0.06-1.34-0.1-2,0-.23,0-0.48,0-0.71,0-.76-0.06-1.51-0.08-2.27a3.19,3.19,0,0,0-.23-1.11A1.53,1.53,0,0,0,73,1.42a0.19,0.19,0,0,1-.1,0,0.51,0.51,0,0,0-.57.17,1.2,1.2,0,0,0-.15.17,8,8,0,0,0-.65,1.18l-0.27.59c-0.29.67-.57,1.34-0.8,2-0.29.9-.55,1.85-0.76,2.79a0.83,0.83,0,0,1-.13.31A2.53,2.53,0,0,1,69.47,8c-0.08-.55-0.13-1.07-0.17-1.6a14.38,14.38,0,0,0-.15-1.64,3.17,3.17,0,0,0-.34-1.18c-0.13-.25-0.29-0.48-0.42-0.71a1.61,1.61,0,0,0-.82-0.67,0.58,0.58,0,0,0-.52,0,3.13,3.13,0,0,0-.5.29,5,5,0,0,0-.94.94,0.41,0.41,0,0,1-.21.21,1.19,1.19,0,0,1-.17-0.27,1.59,1.59,0,0,0-.84-0.78L64,2.38a0.61,0.61,0,0,0-.57.06,2.43,2.43,0,0,0-.4.29,4.75,4.75,0,0,0-.94,1.49,0.42,0.42,0,0,0,0,.36c0.17,0,.17,0,0.21,0a3.66,3.66,0,0,0,.23-0.38,2.78,2.78,0,0,1,.34-0.52A4,4,0,0,1,63.63,3a0.75,0.75,0,0,1,.19-0.08,0.41,0.41,0,0,1,.17,0,0.28,0.28,0,0,1,.06.1c0,0.23.06,0.48,0.06,0.71,0,0.78,0,1.55,0,2.31a1.09,1.09,0,0,1-.17.63,1.22,1.22,0,0,0-.1.29c-0.29.84-.52,1.7-0.76,2.56a16,16,0,0,0-.44,2.27c0,0.52-.08,1-0.13,1.53a16.33,16.33,0,0,0,.19,4.18,1.89,1.89,0,0,0,.19.21,1.48,1.48,0,0,0,.19.15,2,2,0,0,0,.84.31,0.9,0.9,0,0,0,.34,0c0.21-.06.44-0.15,0.65-0.19a0.63,0.63,0,0,0,.38-0.31,4.26,4.26,0,0,0,.23-0.55c0.1-.29.21-0.61,0.31-0.92a3.78,3.78,0,0,0,.21-1c0-.44.06-0.88,0.08-1.32,0-1,0-2.12,0-3.17,0-.46,0-0.92,0-1.39s0-1.2-.08-1.78a7.14,7.14,0,0,0-.06-0.94C65.86,6,65.79,5.49,65.69,4.94a1.08,1.08,0,0,1,.17-0.88c0-.06.06-0.13,0.1-0.19a6.42,6.42,0,0,1,1.22-1.28l0.1,0a0.28,0.28,0,0,1,.17.21,1.39,1.39,0,0,1,.06.71c0,0.29-.06.59-0.08,0.88-0.06.69-.15,1.41-0.15,2.12s0,1.53.06,2.29c0,0.48,0,.94.08,1.43,0.08,0.9.17,1.81,0.27,2.71,0.06,0.63.17,1.26,0.25,1.89a8.31,8.31,0,0,0,.34,1.39,0.27,0.27,0,0,0,.21.19,0.8,0.8,0,0,0,.21.06c0.23,0,.46,0,0.69,0a0.49,0.49,0,0,0,.46-0.25c0-.06.1-0.08,0.15-0.15s0-.08,0-0.15a0.52,0.52,0,0,1,0-.17,1.92,1.92,0,0,0,.19.06c0.13,0,.19,0,0.17-0.13,0-.31-0.08-0.63-0.13-0.92s-0.06-.57-0.1-0.84,0-.52,0-0.8V12.84a10.29,10.29,0,0,1,.15-1.41c0.1-.71.25-1.43,0.36-2.14A12,12,0,0,1,71,7.57c0.17-.59.36-1.15,0.52-1.76a11,11,0,0,1,.8-2s0.06-.06.13-0.15a1.39,1.39,0,0,0,0,.27c0,0.46-.06.92-0.06,1.39,0,1.18,0,2.37.06,3.55a11.82,11.82,0,0,0,.06,1.22c0.06,0.52.15,1,.23,1.55a4.2,4.2,0,0,0,.08.5,1.11,1.11,0,0,1,.08.52,0.08,0.08,0,0,0,0,.06,0.76,0.76,0,0,1,.21.59,0.21,0.21,0,0,0,0,.06,0.5,0.5,0,0,1,.1.29c0,0.1.06,0.19,0.08,0.29l0.25,0.65,0.31,0.71c0.17,0.4.4,0.76,0.55,1.15a0.6,0.6,0,0,0,.13.19c0.19,0.21.36,0.42,0.55,0.61a0.66,0.66,0,0,0,.36.23A1.49,1.49,0,0,0,77,16.85a3.81,3.81,0,0,0,.48-1.45,1.62,1.62,0,0,1,0-.31v0a3.06,3.06,0,0,0,1.24,1.4,1.52,1.52,0,0,0,.59.21,3.84,3.84,0,0,0,1,0,1.5,1.5,0,0,0,1.07-.52,0.11,0.11,0,0,1,0-.06l0.66-.67a1.58,1.58,0,0,0,.16.64l0.44,0.84A2.3,2.3,0,0,0,84,18a2.15,2.15,0,0,0,1,.19c0.27,0,.52,0,0.8-0.08a4.87,4.87,0,0,0,1.6-.5L88,17.18a4,4,0,0,0,1-.94A6.47,6.47,0,0,0,90.13,14a2.85,2.85,0,0,0,.13-0.61c0-.34.06-0.65,0.08-1a5.93,5.93,0,0,0-.08-1.49c0-.17,0-0.36-0.08-0.55l1.13-.23L93,9.88c0.11,0,.35-0.05.58-0.11a1.24,1.24,0,0,1,.11.25,0.29,0.29,0,0,1-.06.08A11.12,11.12,0,0,0,91.75,12a2.84,2.84,0,0,0-.57,1,1.44,1.44,0,0,0,.19.88,0.29,0.29,0,0,0,.08.06,3.47,3.47,0,0,0,.67.38c0.13,0,.25,0,0.38.08a2.56,2.56,0,0,0,1.7-.17l0.88-.5a1,1,0,0,1,.29-0.15,2.64,2.64,0,0,0,1.07-.57,2.76,2.76,0,0,0,.46-0.52A0.88,0.88,0,0,0,97,12.33a2,2,0,0,0,0-.61,4.78,4.78,0,0,0-.73-1.83,1.74,1.74,0,0,1-.15-0.27,0.15,0.15,0,0,1,0-.08,3,3,0,0,1,.67-0.48c0.27-.15.55-0.29,0.82-0.46a18.3,18.3,0,0,1,2.79-1.41,1.77,1.77,0,0,0,.29-0.13c0.27-.17.5-0.34,0.78-0.52A0.31,0.31,0,0,0,101.7,6.22Zm-22,3.38a8.84,8.84,0,0,1,.61-1.45,2.93,2.93,0,0,1,1-1.15,0.44,0.44,0,0,1,.36-0.13,0.2,0.2,0,0,1,.15,0,0.44,0.44,0,0,1,.08.36,3.22,3.22,0,0,1-.65,1.28,4.61,4.61,0,0,1-1.09,1,2.25,2.25,0,0,0-.23.19l-0.19.11-0.15,0A1.21,1.21,0,0,1,79.67,9.6Zm-15.6,7.06c0,0.06,0,.13,0,0.21l-0.38.27a0.24,0.24,0,0,1-.4-0.15,4.9,4.9,0,0,1-.15-0.52,3,3,0,0,1-.06-1.22c0-.13,0-0.25,0-0.38a23.07,23.07,0,0,1,.25-3.19,16.51,16.51,0,0,1,.52-2.46c0-.08.06-0.15,0.08-0.23C64,9.39,64.11,15.82,64.07,16.66Zm0-10,0,0h0Zm22.7,7.2a4.7,4.7,0,0,1-1,1.39,6.88,6.88,0,0,1-1.18.88,2.19,2.19,0,0,1-.82.25,0.66,0.66,0,0,1-.48-0.1,0.64,0.64,0,0,1-.21-0.46,2.2,2.2,0,0,1,.19-1.22c0.12-.25.24-0.5,0.38-0.74l0,0,0-.06A3.1,3.1,0,0,1,84,13.42h0l0-.05a8.4,8.4,0,0,1,1.91-1.74A3.29,3.29,0,0,1,87,11.05a3,3,0,0,1,.08,1s0,0.08,0,.11A3.58,3.58,0,0,1,86.79,13.82ZM94,12.26a4.82,4.82,0,0,1-1,1.18,0.57,0.57,0,0,1-.71,0,0.18,0.18,0,0,1-.08-0.23,0.84,0.84,0,0,1,.15-0.38,3.91,3.91,0,0,1,.48-0.67c0.34-.38.69-0.71,1-1.07L94.06,11A1.14,1.14,0,0,1,94,12.26Z"/></svg>